# xmcd
#
# Track frame offsets:
#	150
#	15287
#	25502
#	38197
#	53867
#	67997
#	80907
#	95957
#	108770
#	122510
#	134645
#	147692
#	163890
#	176637
#	193125
#	206477
#	220395
#	233205
#	245670
#	259722
#	276285
#
# Disc length: 3852 seconds
#
# Revision: 1
# Processed by: cddbd v1.5.1PL0 Copyright (c) Steve Scherf et al.
# Submitted via: audiograbber 1.83.01
#
DISCID=3f0f0a15
DTITLE=Elmore James - The Last Sessions
DYEAR=1995
DGENRE=Blues
TTITLE0=Everyday I Have the Blues
TTITLE1=Can't Stop Loving my Baby
TTITLE2=Got to Move
TTITLE3=I Believe
TTITLE4=Up Jumped Elmore (Elmore Jumps One)
TTITLE5=Talk to Me Baby
TTITLE6=It Hurts Me Too
TTITLE7=Dust My Broom
TTITLE8=Hand in Hand
TTITLE9=I Have A Right to Love My Baby
TTITLE10=Pickin' the Blues
TTITLE11=Twelve Year Old Boy
TTITLE12=Make My Dreams Come True
TTITLE13=I Gotta Go Now
TTITLE14=Look On Yonder Wall
TTITLE15=Find My Kind of Woman (tk 1)
TTITLE16=Find My Kinda Woman (tk 3)
TTITLE17=Dust My Broom
TTITLE18=My Baby's Gone
TTITLE19=Back In Mississippi (conversation)
TTITLE20=Up Jumped Elmore (Black Snake Slide)
EXTD=
EXTT0=
EXTT1=
EXTT2=
EXTT3=
EXTT4=
EXTT5=
EXTT6=
EXTT7=
EXTT8=
EXTT9=
EXTT10=
EXTT11=
EXTT12=
EXTT13=
EXTT14=
EXTT15=
EXTT16=
EXTT17=
EXTT18=
EXTT19=
EXTT20=
PLAYORDER=
